<mxfile host="65bd71144e">
    <diagram id="dUWBYZE-NfTA2veM3AWh" name="Page-1">
        <mxGraphModel dx="774" dy="569" grid="1" gridSize="10" guides="1" tooltips="1" connect="1" arrows="1" fold="1" page="1" pageScale="1" pageWidth="850" pageHeight="1100" math="0" shadow="0">
            <root>
                <mxCell id="0"/>
                <mxCell id="1" parent="0"/>
                <mxCell id="6" value="" style="shape=curlyBracket;whiteSpace=wrap;html=1;rounded=1;labelPosition=left;verticalLabelPosition=middle;align=right;verticalAlign=middle;" parent="1" vertex="1">
                    <mxGeometry x="260" y="170" width="20" height="170" as="geometry"/>
                </mxCell>
                <mxCell id="7" value="绪论" style="text;html=1;strokeColor=none;fillColor=none;align=center;verticalAlign=middle;whiteSpace=wrap;rounded=1;" parent="1" vertex="1">
                    <mxGeometry x="200" y="240" width="60" height="30" as="geometry"/>
                </mxCell>
                <mxCell id="8" value="数据结构三要素" style="text;html=1;strokeColor=none;fillColor=none;align=center;verticalAlign=middle;whiteSpace=wrap;rounded=1;" parent="1" vertex="1">
                    <mxGeometry x="290" y="150" width="90" height="35" as="geometry"/>
                </mxCell>
                <mxCell id="9" value="逻辑结构" style="text;html=1;strokeColor=#6F0000;fillColor=#a20025;align=center;verticalAlign=middle;whiteSpace=wrap;rounded=1;fontColor=#ffffff;" parent="1" vertex="1">
                    <mxGeometry x="425" y="90" width="60" height="30" as="geometry"/>
                </mxCell>
                <mxCell id="10" value="五个特征" style="text;html=1;strokeColor=none;fillColor=none;align=center;verticalAlign=middle;whiteSpace=wrap;rounded=1;" parent="1" vertex="1">
                    <mxGeometry x="280" y="330" width="70" height="30" as="geometry"/>
                </mxCell>
                <mxCell id="17" value="存储结构" style="text;html=1;strokeColor=#6F0000;fillColor=#a20025;align=center;verticalAlign=middle;whiteSpace=wrap;rounded=1;fontColor=#ffffff;" parent="1" vertex="1">
                    <mxGeometry x="425" y="155" width="60" height="30" as="geometry"/>
                </mxCell>
                <mxCell id="18" value="数据的运算&lt;br&gt;" style="text;html=1;strokeColor=#6F0000;fillColor=#a20025;align=center;verticalAlign=middle;whiteSpace=wrap;rounded=1;fontColor=#ffffff;" parent="1" vertex="1">
                    <mxGeometry x="425" y="210" width="75" height="30" as="geometry"/>
                </mxCell>
                <mxCell id="19" value="" style="shape=curlyBracket;whiteSpace=wrap;html=1;rounded=1;labelPosition=left;verticalLabelPosition=middle;align=right;verticalAlign=middle;size=0.5;" parent="1" vertex="1">
                    <mxGeometry x="390" y="107.5" width="20" height="120" as="geometry"/>
                </mxCell>
                <mxCell id="20" value="" style="shape=curlyBracket;whiteSpace=wrap;html=1;rounded=1;labelPosition=left;verticalLabelPosition=middle;align=right;verticalAlign=middle;size=0.5;" parent="1" vertex="1">
                    <mxGeometry x="495" y="72.5" width="20" height="65" as="geometry"/>
                </mxCell>
                <mxCell id="22" value="线性结构：线性表、栈、队列" style="text;html=1;strokeColor=none;fillColor=none;align=center;verticalAlign=middle;whiteSpace=wrap;rounded=1;" parent="1" vertex="1">
                    <mxGeometry x="525" y="60" width="170" height="30" as="geometry"/>
                </mxCell>
                <mxCell id="23" value="非线性结构：树、图、集合" style="text;html=1;strokeColor=none;fillColor=none;align=center;verticalAlign=middle;whiteSpace=wrap;rounded=1;" parent="1" vertex="1">
                    <mxGeometry x="525" y="125" width="160" height="30" as="geometry"/>
                </mxCell>
                <mxCell id="25" value="" style="shape=curlyBracket;whiteSpace=wrap;html=1;rounded=1;labelPosition=left;verticalLabelPosition=middle;align=right;verticalAlign=middle;" parent="1" vertex="1">
                    <mxGeometry x="360" y="285" width="20" height="120" as="geometry"/>
                </mxCell>
                <mxCell id="26" value="效率的度量" style="text;html=1;strokeColor=none;fillColor=none;align=center;verticalAlign=middle;whiteSpace=wrap;rounded=1;" parent="1" vertex="1">
                    <mxGeometry x="400" y="390" width="80" height="30" as="geometry"/>
                </mxCell>
                <mxCell id="27" value="五个特征：有穷性、稳定性、可行性、输入、输出" style="text;html=1;strokeColor=#6F0000;fillColor=#a20025;align=center;verticalAlign=middle;whiteSpace=wrap;rounded=1;fontColor=#ffffff;" parent="1" vertex="1">
                    <mxGeometry x="400" y="330" width="280" height="30" as="geometry"/>
                </mxCell>
                <mxCell id="28" value="算法定义" style="text;html=1;strokeColor=none;fillColor=none;align=center;verticalAlign=middle;whiteSpace=wrap;rounded=1;" parent="1" vertex="1">
                    <mxGeometry x="400" y="270" width="60" height="30" as="geometry"/>
                </mxCell>
                <mxCell id="29" value="" style="shape=curlyBracket;whiteSpace=wrap;html=1;rounded=1;labelPosition=left;verticalLabelPosition=middle;align=right;verticalAlign=middle;size=0.25;" parent="1" vertex="1">
                    <mxGeometry x="480" y="375" width="20" height="60" as="geometry"/>
                </mxCell>
                <mxCell id="30" value="空间复杂度" style="text;html=1;strokeColor=none;fillColor=none;align=center;verticalAlign=middle;whiteSpace=wrap;rounded=1;" parent="1" vertex="1">
                    <mxGeometry x="510" y="420" width="80" height="30" as="geometry"/>
                </mxCell>
                <mxCell id="31" value="时间复杂度" style="text;html=1;strokeColor=none;fillColor=none;align=center;verticalAlign=middle;whiteSpace=wrap;rounded=1;" parent="1" vertex="1">
                    <mxGeometry x="510" y="360" width="80" height="30" as="geometry"/>
                </mxCell>
            </root>
        </mxGraphModel>
    </diagram>
</mxfile>